<svg width="1920" height="2500" viewBox="0 0 1920 2500" fill="none" xmlns="http://www.w3.org/2000/svg">
<g clip-path="url(#clip0_168_8163)">
<rect width="1920" height="2500" fill="white"/>
<path d="M956.9 777.9V762.6C956.9 759.783 959.183 757.5 962 757.5C964.817 757.5 967.1 759.783 967.1 762.6V777.9C967.1 780.717 964.817 783 962 783C959.183 783 956.9 780.717 956.9 777.9ZM942.283 755.95C943.692 753.511 946.811 752.675 949.25 754.083C951.689 755.492 952.525 758.611 951.117 761.05L943.467 774.3C942.058 776.74 938.939 777.575 936.5 776.167C934.061 774.759 933.225 771.64 934.633 769.2L942.283 755.95ZM974.75 754.083C977.189 752.675 980.308 753.511 981.717 755.95L989.367 769.2C990.775 771.64 989.939 774.759 987.5 776.167C985.061 777.575 981.942 776.74 980.533 774.3L972.883 761.05C971.475 758.611 972.311 755.492 974.75 754.083ZM932.95 742.883C935.389 741.475 938.508 742.311 939.916 744.75C941.325 747.189 940.489 750.308 938.05 751.717L924.799 759.367C922.36 760.775 919.241 759.939 917.833 757.5C916.424 755.061 917.26 751.942 919.699 750.533L932.95 742.883ZM984.084 744.75C985.492 742.311 988.611 741.475 991.051 742.883L1004.3 750.533C1006.74 751.942 1007.58 755.061 1006.17 757.5C1004.76 759.939 1001.64 760.775 999.2 759.367L985.951 751.717C983.511 750.308 982.676 747.189 984.084 744.75ZM931.4 726.9C934.217 726.9 936.5 729.183 936.5 732C936.5 734.817 934.217 737.1 931.4 737.1H916.1C913.283 737.1 911 734.817 911 732C911 729.183 913.283 726.9 916.1 726.9H931.4ZM1007.9 726.9C1010.72 726.9 1013 729.183 1013 732C1013 734.817 1010.72 737.1 1007.9 737.1H992.6C989.783 737.1 987.5 734.817 987.5 732C987.5 729.183 989.783 726.9 992.6 726.9H1007.9ZM917.833 706.5C919.241 704.061 922.36 703.225 924.799 704.633L938.05 712.283C940.489 713.692 941.325 716.811 939.916 719.25C938.508 721.689 935.389 722.525 932.95 721.117L919.699 713.467C917.26 712.058 916.424 708.939 917.833 706.5ZM936.5 687.833C938.939 686.424 942.058 687.26 943.467 689.699L951.117 702.95C952.525 705.389 951.689 708.508 949.25 709.916C946.811 711.325 943.692 710.489 942.283 708.05L934.633 694.799C933.225 692.36 934.061 689.241 936.5 687.833ZM956.9 701.4V686.1C956.9 683.283 959.183 681 962 681C964.817 681 967.1 683.283 967.1 686.1V701.4C967.1 704.217 964.817 706.5 962 706.5C959.183 706.5 956.9 704.217 956.9 701.4Z" fill="black"/>
<path d="M804.784 832.752C804.635 830.789 804.624 828.293 804.752 825.264C804.944 820.72 805.04 818.299 805.04 818C805.04 817.872 805.008 817.488 804.944 816.848C804.88 816.123 804.859 815.536 804.88 815.088C804.923 813.104 805.637 811.877 807.024 811.408C807.387 811.28 807.984 811.205 808.816 811.184C809.392 811.163 810.128 811.163 811.024 811.184C811.323 811.205 811.728 811.227 812.24 811.248C812.773 811.269 813.275 811.291 813.744 811.312C814.213 811.312 814.523 811.312 814.672 811.312H815.312C815.653 811.312 816.091 811.301 816.624 811.28C817.157 811.28 817.637 811.28 818.064 811.28C818.96 811.259 819.675 811.259 820.208 811.28C820.549 811.28 820.827 811.291 821.04 811.312C821.168 811.333 821.285 811.355 821.392 811.376C821.691 811.44 821.947 811.547 822.16 811.696C822.587 812.059 822.885 812.613 823.056 813.36C823.141 813.787 823.205 814.309 823.248 814.928V817.2C823.248 818.928 823.237 821.52 823.216 824.976C823.195 828.453 823.184 830.992 823.184 832.592C823.184 833.083 823.035 833.456 822.736 833.712C822.437 833.947 822.096 834.064 821.712 834.064C821.328 834.064 820.987 833.947 820.688 833.712C820.389 833.456 820.24 833.083 820.24 832.592C820.24 830.992 820.251 828.453 820.272 824.976C820.293 821.52 820.304 818.928 820.304 817.2C820.304 817.157 820.304 817.008 820.304 816.752C820.304 816.475 820.304 816.187 820.304 815.888C820.325 815.568 820.325 815.301 820.304 815.088C820.304 814.747 820.283 814.459 820.24 814.224L820.144 814.192H818.096C817.776 814.192 817.36 814.203 816.848 814.224C816.357 814.224 815.899 814.235 815.472 814.256C815.045 814.256 814.779 814.256 814.672 814.256C814.437 814.256 813.872 814.235 812.976 814.192C812.059 814.149 811.376 814.128 810.928 814.128C810.096 814.107 809.424 814.096 808.912 814.096C808.485 814.117 808.176 814.139 807.984 814.16C807.877 814.288 807.813 814.619 807.792 815.152C807.792 815.493 807.824 815.973 807.888 816.592C807.952 817.317 807.984 817.787 807.984 818C807.984 818.576 807.888 821.04 807.696 825.392C807.568 828.293 807.579 830.661 807.728 832.496C807.749 832.987 807.621 833.36 807.344 833.616C807.067 833.872 806.736 834.021 806.352 834.064C805.989 834.107 805.648 834.021 805.328 833.808C805.008 833.573 804.827 833.221 804.784 832.752ZM832.913 833.936C831.483 833.659 830.31 833.083 829.393 832.208C828.475 831.312 827.803 830.256 827.377 829.04C826.971 827.824 826.811 826.565 826.897 825.264C826.961 824.048 827.217 822.875 827.665 821.744C828.091 820.635 828.763 819.643 829.681 818.768C830.619 817.893 831.707 817.371 832.945 817.2C833.137 817.157 833.35 817.136 833.585 817.136C833.947 816.923 834.331 816.848 834.737 816.912L834.929 816.944C835.121 816.944 835.419 816.976 835.825 817.04C836.251 817.083 836.603 817.168 836.881 817.296C838.139 817.808 839.174 818.64 839.985 819.792C840.774 820.944 841.297 822.171 841.553 823.472C841.809 824.773 841.851 826.064 841.681 827.344C841.361 829.52 840.497 831.237 839.089 832.496C837.425 833.968 835.366 834.448 832.913 833.936ZM833.553 830.8C834.982 831.099 836.123 830.864 836.977 830.096C837.787 829.371 838.299 828.304 838.513 826.896C838.641 825.936 838.609 825.008 838.417 824.112C838.225 823.216 837.905 822.437 837.457 821.776C837.009 821.093 836.465 820.603 835.825 820.304C835.505 820.517 835.163 820.603 834.801 820.56C834.758 820.56 834.427 820.496 833.809 820.368C833.617 820.347 833.478 820.336 833.393 820.336C832.539 820.464 831.793 821.008 831.153 821.968C830.513 822.907 830.161 824.059 830.097 825.424C830.011 826.811 830.278 827.995 830.897 828.976C831.494 829.957 832.379 830.565 833.553 830.8ZM857.365 837.776V834H856.565C855.499 834.021 853.973 834.043 851.989 834.064C851.541 834.064 850.976 834.064 850.293 834.064C849.632 834.085 848.971 834.096 848.309 834.096C847.648 834.096 847.072 834.107 846.581 834.128C846.112 834.149 845.824 834.16 845.717 834.16C845.696 834.352 845.685 835.109 845.685 836.432C845.685 836.965 845.525 837.36 845.205 837.616C844.885 837.893 844.512 838.032 844.085 838.032C843.659 838.032 843.285 837.893 842.965 837.616C842.645 837.36 842.485 836.965 842.485 836.432C842.485 835.109 842.517 833.851 842.581 832.656C842.603 832.336 842.709 832.037 842.901 831.76C843.2 831.248 843.659 830.981 844.277 830.96C846.475 826.629 847.573 822.512 847.573 818.608C847.573 818.16 847.723 817.787 848.021 817.488C848.341 817.168 848.725 817.008 849.173 817.008C849.323 817.008 849.472 817.029 849.621 817.072H849.653C849.931 817.051 851.275 817.019 853.685 816.976C854.752 816.955 855.552 816.944 856.085 816.944H857.333C857.397 816.944 857.461 816.955 857.525 816.976C857.589 816.997 857.664 817.019 857.749 817.04C858.048 817.147 858.293 817.328 858.485 817.584C858.635 817.776 858.741 818 858.805 818.256C858.805 818.341 858.816 818.437 858.837 818.544C858.859 818.693 858.869 818.875 858.869 819.088V820.464C858.848 821.275 858.805 822.693 858.741 824.72C858.613 828.347 858.549 830.384 858.549 830.832H858.645C858.731 830.853 858.805 830.864 858.869 830.864C859.061 830.885 859.253 830.939 859.445 831.024C859.829 831.216 860.107 831.525 860.277 831.952C860.341 832.08 860.384 832.229 860.405 832.4C860.448 832.592 860.48 832.837 860.501 833.136C860.544 833.584 860.565 834.181 860.565 834.928V837.776C860.565 838.309 860.405 838.704 860.085 838.96C859.765 839.237 859.392 839.376 858.965 839.376C858.539 839.376 858.165 839.237 857.845 838.96C857.525 838.704 857.365 838.309 857.365 837.776ZM847.861 830.928C849.589 830.885 850.955 830.864 851.957 830.864C853.301 830.843 854.432 830.832 855.349 830.832C855.349 830.213 855.413 828.133 855.541 824.592C855.605 822.608 855.648 821.211 855.669 820.4V820.144C855.115 820.144 854.475 820.155 853.749 820.176C852.512 820.197 851.499 820.219 850.709 820.24C850.475 823.739 849.525 827.301 847.861 830.928ZM868.194 833.936C866.765 833.659 865.591 833.083 864.674 832.208C863.757 831.312 863.085 830.256 862.658 829.04C862.253 827.824 862.093 826.565 862.178 825.264C862.242 824.048 862.498 822.875 862.946 821.744C863.373 820.635 864.045 819.643 864.962 818.768C865.901 817.893 866.989 817.371 868.226 817.2C868.418 817.157 868.631 817.136 868.866 817.136C869.229 816.923 869.613 816.848 870.018 816.912L870.21 816.944C870.402 816.944 870.701 816.976 871.106 817.04C871.533 817.083 871.885 817.168 872.162 817.296C873.421 817.808 874.455 818.64 875.266 819.792C876.055 820.944 876.578 822.171 876.834 823.472C877.09 824.773 877.133 826.064 876.962 827.344C876.642 829.52 875.778 831.237 874.37 832.496C872.706 833.968 870.647 834.448 868.194 833.936ZM868.834 830.8C870.263 831.099 871.405 830.864 872.258 830.096C873.069 829.371 873.581 828.304 873.794 826.896C873.922 825.936 873.89 825.008 873.698 824.112C873.506 823.216 873.186 822.437 872.738 821.776C872.29 821.093 871.746 820.603 871.106 820.304C870.786 820.517 870.445 820.603 870.082 820.56C870.039 820.56 869.709 820.496 869.09 820.368C868.898 820.347 868.759 820.336 868.674 820.336C867.821 820.464 867.074 821.008 866.434 821.968C865.794 822.907 865.442 824.059 865.378 825.424C865.293 826.811 865.559 827.995 866.178 828.976C866.775 829.957 867.661 830.565 868.834 830.8ZM896.765 833.456C895.186 831.579 893.159 829.467 890.685 827.12C890.535 827.099 890.407 827.067 890.301 827.024C890.301 828.773 890.343 830.544 890.429 832.336C890.45 832.869 890.301 833.275 889.981 833.552C889.682 833.829 889.319 833.979 888.893 834C888.487 834.021 888.114 833.915 887.773 833.68C887.431 833.424 887.25 833.04 887.229 832.528C887.143 830.864 887.101 828.987 887.101 826.896H886.557C885.938 827.728 885.031 828.816 883.837 830.16C882.365 831.76 881.405 832.848 880.957 833.424C880.637 833.851 880.263 834.064 879.837 834.064C879.431 834.085 879.058 833.968 878.717 833.712C878.397 833.456 878.183 833.125 878.077 832.72C877.97 832.315 878.077 831.909 878.397 831.504C878.866 830.949 879.89 829.787 881.469 828.016C882.471 826.885 883.229 825.979 883.741 825.296C881.799 823.632 880.039 821.755 878.461 819.664C878.098 819.28 877.949 818.885 878.013 818.48C878.077 818.053 878.258 817.701 878.557 817.424C878.877 817.125 879.239 816.965 879.645 816.944C880.071 816.923 880.466 817.104 880.829 817.488C882.642 819.813 884.637 821.883 886.813 823.696H887.101C887.122 820.88 887.133 819.184 887.133 818.608C887.133 818.075 887.293 817.68 887.613 817.424C887.933 817.147 888.306 817.008 888.733 817.008C889.159 817.008 889.533 817.147 889.853 817.424C890.173 817.68 890.333 818.075 890.333 818.608C890.333 819.205 890.322 820.912 890.301 823.728H890.621C892.071 822.448 893.703 820.4 895.517 817.584C895.858 817.179 896.231 816.976 896.637 816.976C897.063 816.976 897.437 817.115 897.757 817.392C898.077 817.669 898.269 818.011 898.333 818.416C898.418 818.821 898.29 819.227 897.949 819.632C896.285 822.277 894.802 824.208 893.501 825.424C895.783 827.579 897.682 829.573 899.197 831.408C899.538 831.813 899.666 832.219 899.581 832.624C899.517 833.029 899.325 833.371 899.005 833.648C898.685 833.925 898.311 834.064 897.885 834.064C897.479 834.064 897.106 833.861 896.765 833.456ZM915.334 837.776V834H914.534C913.467 834.021 911.942 834.043 909.958 834.064C909.51 834.064 908.945 834.064 908.262 834.064C907.601 834.085 906.939 834.096 906.278 834.096C905.617 834.096 905.041 834.107 904.55 834.128C904.081 834.149 903.793 834.16 903.686 834.16C903.665 834.352 903.654 835.109 903.654 836.432C903.654 836.965 903.494 837.36 903.174 837.616C902.854 837.893 902.481 838.032 902.054 838.032C901.627 838.032 901.254 837.893 900.934 837.616C900.614 837.36 900.454 836.965 900.454 836.432C900.454 835.109 900.486 833.851 900.55 832.656C900.571 832.336 900.678 832.037 900.87 831.76C901.169 831.248 901.627 830.981 902.246 830.96C904.443 826.629 905.542 822.512 905.542 818.608C905.542 818.16 905.691 817.787 905.99 817.488C906.31 817.168 906.694 817.008 907.142 817.008C907.291 817.008 907.441 817.029 907.59 817.072H907.622C907.899 817.051 909.243 817.019 911.654 816.976C912.721 816.955 913.521 816.944 914.054 816.944H915.302C915.366 816.944 915.43 816.955 915.494 816.976C915.558 816.997 915.633 817.019 915.718 817.04C916.017 817.147 916.262 817.328 916.454 817.584C916.603 817.776 916.71 818 916.774 818.256C916.774 818.341 916.785 818.437 916.806 818.544C916.827 818.693 916.838 818.875 916.838 819.088V820.464C916.817 821.275 916.774 822.693 916.71 824.72C916.582 828.347 916.518 830.384 916.518 830.832H916.614C916.699 830.853 916.774 830.864 916.838 830.864C917.03 830.885 917.222 830.939 917.414 831.024C917.798 831.216 918.075 831.525 918.246 831.952C918.31 832.08 918.353 832.229 918.374 832.4C918.417 832.592 918.449 832.837 918.47 833.136C918.513 833.584 918.534 834.181 918.534 834.928V837.776C918.534 838.309 918.374 838.704 918.054 838.96C917.734 839.237 917.361 839.376 916.934 839.376C916.507 839.376 916.134 839.237 915.814 838.96C915.494 838.704 915.334 838.309 915.334 837.776ZM905.83 830.928C907.558 830.885 908.923 830.864 909.926 830.864C911.27 830.843 912.401 830.832 913.318 830.832C913.318 830.213 913.382 828.133 913.51 824.592C913.574 822.608 913.617 821.211 913.638 820.4V820.144C913.083 820.144 912.443 820.155 911.718 820.176C910.481 820.197 909.467 820.219 908.678 820.24C908.443 823.739 907.494 827.301 905.83 830.928ZM922.227 833.84C921.651 833.456 921.427 832.923 921.555 832.24C921.533 832.197 921.523 832.155 921.523 832.112C921.459 831.429 921.405 830.683 921.363 829.872C921.341 829.04 921.32 828.261 921.299 827.536C921.299 826.789 921.309 826.203 921.331 825.776C921.331 825.52 921.341 825.125 921.363 824.592C921.405 824.059 921.437 823.472 921.459 822.832C921.501 822.171 921.533 821.531 921.555 820.912C921.576 820.272 921.597 819.739 921.619 819.312C921.661 818.864 921.683 818.587 921.683 818.48C921.704 818.011 921.875 817.648 922.195 817.392C922.536 817.115 922.92 816.976 923.347 816.976C923.773 816.976 924.147 817.147 924.467 817.488C924.616 817.659 924.712 818.096 924.755 818.8C924.797 819.483 924.808 820.293 924.787 821.232C924.787 822.171 924.755 823.12 924.691 824.08C924.648 825.019 924.605 825.851 924.563 826.576C924.52 827.28 924.499 827.728 924.499 827.92L926.771 825.008C928.776 822.384 930.301 820.005 931.347 817.872C931.624 817.424 932.029 817.168 932.563 817.104C932.733 817.04 932.915 816.997 933.107 816.976C933.555 816.955 933.939 817.093 934.259 817.392C934.6 817.669 934.781 818.032 934.803 818.48C934.888 820.571 934.92 823.024 934.899 825.84C934.835 828.869 934.835 831.056 934.899 832.4C934.92 832.933 934.771 833.339 934.451 833.616C934.152 833.893 933.789 834.032 933.363 834.032C932.957 834.053 932.584 833.947 932.243 833.712C931.901 833.456 931.72 833.061 931.699 832.528C931.635 831.163 931.635 828.923 931.699 825.808V823.728L929.299 826.96C926.803 830.203 925.181 832.357 924.435 833.424C924.179 833.787 923.837 834.011 923.411 834.096C922.984 834.181 922.589 834.096 922.227 833.84ZM945.959 832.464C945.959 832.997 945.799 833.392 945.479 833.648C945.159 833.904 944.785 834.021 944.359 834C943.932 834 943.559 833.861 943.239 833.584C942.919 833.307 942.759 832.912 942.759 832.4C942.865 826.853 942.865 822.832 942.759 820.336C942.417 820.336 941.82 820.325 940.967 820.304C940.092 820.283 939.42 820.272 938.951 820.272C938.417 820.272 938.023 820.112 937.767 819.792C937.511 819.472 937.383 819.099 937.383 818.672C937.404 818.245 937.553 817.872 937.831 817.552C938.108 817.232 938.503 817.072 939.015 817.072C944.689 817.179 948.337 817.2 949.959 817.136C950.492 817.115 950.897 817.264 951.175 817.584C951.452 817.883 951.591 818.245 951.591 818.672C951.612 819.077 951.495 819.451 951.239 819.792C951.004 820.133 950.62 820.315 950.087 820.336C948.849 820.379 947.473 820.4 945.959 820.4C946.065 822.939 946.065 826.96 945.959 832.464ZM967.042 831.472C966.124 832.432 965.058 833.125 963.842 833.552C962.647 833.979 961.431 834.139 960.194 834.032C958.956 833.947 957.826 833.573 956.802 832.912C955.735 832.272 954.85 831.461 954.146 830.48C953.463 829.477 953.036 828.357 952.866 827.12C952.716 825.861 952.908 824.517 953.442 823.088C953.954 821.659 954.668 820.464 955.586 819.504C956.524 818.544 957.58 817.84 958.754 817.392C959.927 816.944 961.122 816.795 962.338 816.944C963.596 817.093 964.716 817.541 965.698 818.288C966.7 819.035 967.49 820.016 968.066 821.232C968.642 822.448 968.93 823.856 968.93 825.456C968.93 826.053 968.674 826.512 968.162 826.832C967.842 827.067 967.479 827.163 967.074 827.12C964.428 826.843 960.834 826.821 956.29 827.056H956.226C956.418 827.995 956.823 828.784 957.442 829.424C958.06 830.043 958.796 830.469 959.65 830.704C960.524 830.939 961.41 830.949 962.306 830.736C963.202 830.501 964.012 830 964.738 829.232C965.1 828.869 965.484 828.709 965.89 828.752C966.316 828.773 966.679 828.933 966.978 829.232C967.276 829.509 967.447 829.861 967.49 830.288C967.554 830.693 967.404 831.088 967.042 831.472ZM956.578 823.824C960.226 823.653 963.223 823.643 965.57 823.792C965.335 822.683 964.876 821.819 964.194 821.2C963.532 820.581 962.786 820.229 961.954 820.144C960.93 820.016 959.916 820.261 958.914 820.88C957.911 821.499 957.132 822.48 956.578 823.824ZM980.999 832.56C980.892 831.195 980.807 829.925 980.743 828.752C980.679 827.515 980.647 826.448 980.647 825.552C980.626 824.848 980.615 824.08 980.615 823.248C980.615 822.416 980.604 821.595 980.583 820.784C980.583 819.973 980.572 819.259 980.551 818.64C980.551 818.128 980.711 817.733 981.031 817.456C981.351 817.179 981.724 817.04 982.151 817.04C982.578 817.019 982.951 817.136 983.271 817.392C983.591 817.648 983.751 818.043 983.751 818.576L983.815 823.664C985.97 823.579 988.359 823.536 990.983 823.536C990.962 822.341 990.898 820.72 990.791 818.672C990.77 818.139 990.908 817.733 991.207 817.456C991.527 817.179 991.89 817.029 992.295 817.008C992.722 816.987 993.106 817.104 993.447 817.36C993.788 817.595 993.97 817.968 993.991 818.48C994.204 822.661 994.311 827.301 994.311 832.4C994.311 832.933 994.151 833.339 993.831 833.616C993.511 833.872 993.138 834 992.711 834C992.284 834 991.911 833.872 991.591 833.616C991.271 833.339 991.111 832.933 991.111 832.4C991.111 830.288 991.1 828.4 991.079 826.736C988.412 826.736 986.012 826.779 983.879 826.864C983.922 828.699 984.028 830.491 984.199 832.24C984.242 832.752 984.114 833.157 983.815 833.456C983.538 833.755 983.186 833.936 982.759 834C982.332 834.043 981.938 833.947 981.575 833.712C981.234 833.477 981.042 833.093 980.999 832.56ZM1011.6 831.472C1010.69 832.432 1009.62 833.125 1008.4 833.552C1007.21 833.979 1005.99 834.139 1004.76 834.032C1003.52 833.947 1002.39 833.573 1001.36 832.912C1000.3 832.272 999.412 831.461 998.708 830.48C998.025 829.477 997.599 828.357 997.428 827.12C997.279 825.861 997.471 824.517 998.004 823.088C998.516 821.659 999.231 820.464 1000.15 819.504C1001.09 818.544 1002.14 817.84 1003.32 817.392C1004.49 816.944 1005.68 816.795 1006.9 816.944C1008.16 817.093 1009.28 817.541 1010.26 818.288C1011.26 819.035 1012.05 820.016 1012.63 821.232C1013.2 822.448 1013.49 823.856 1013.49 825.456C1013.49 826.053 1013.24 826.512 1012.72 826.832C1012.4 827.067 1012.04 827.163 1011.64 827.12C1008.99 826.843 1005.4 826.821 1000.85 827.056H1000.79C1000.98 827.995 1001.39 828.784 1002 829.424C1002.62 830.043 1003.36 830.469 1004.21 830.704C1005.09 830.939 1005.97 830.949 1006.87 830.736C1007.76 830.501 1008.57 830 1009.3 829.232C1009.66 828.869 1010.05 828.709 1010.45 828.752C1010.88 828.773 1011.24 828.933 1011.54 829.232C1011.84 829.509 1012.01 829.861 1012.05 830.288C1012.12 830.693 1011.97 831.088 1011.6 831.472ZM1001.14 823.824C1004.79 823.653 1007.79 823.643 1010.13 823.792C1009.9 822.683 1009.44 821.819 1008.76 821.2C1008.09 820.581 1007.35 820.229 1006.52 820.144C1005.49 820.016 1004.48 820.261 1003.48 820.88C1002.47 821.499 1001.69 822.48 1001.14 823.824ZM1025.26 833.776C1024.87 833.968 1024.47 834 1024.04 833.872C1023.64 833.723 1023.33 833.445 1023.11 833.04C1022.32 831.461 1021.19 828.869 1019.72 825.264C1019.72 825.84 1019.71 826.96 1019.69 828.624C1019.67 830.309 1019.66 831.579 1019.66 832.432C1019.66 832.965 1019.5 833.371 1019.18 833.648C1018.86 833.904 1018.48 834.032 1018.06 834.032C1017.63 834.032 1017.26 833.904 1016.94 833.648C1016.62 833.371 1016.46 832.965 1016.46 832.432C1016.46 831.557 1016.48 830.117 1016.52 828.112C1016.54 826.128 1016.54 824.421 1016.52 822.992C1016.52 821.563 1016.48 820.155 1016.39 818.768C1016.37 818.32 1016.5 817.936 1016.78 817.616C1017.08 817.275 1017.45 817.093 1017.9 817.072H1017.96C1018.34 816.923 1018.73 816.933 1019.11 817.104C1019.5 817.253 1019.77 817.509 1019.94 817.872L1022.44 823.536L1024.65 828.496L1024.94 827.856C1027.62 822.779 1029.05 820.037 1029.22 819.632C1029.37 819.248 1029.51 818.853 1029.64 818.448L1029.67 818.416C1029.72 818.053 1029.88 817.744 1030.15 817.488C1030.45 817.232 1030.79 817.093 1031.18 817.072C1031.62 817.051 1032.01 817.189 1032.33 817.488C1032.65 817.787 1032.82 818.16 1032.84 818.608C1032.86 819.419 1032.92 820.571 1033 822.064C1033.09 823.408 1033.14 824.496 1033.16 825.328C1033.27 828.037 1033.27 830.448 1033.16 832.56C1033.14 833.093 1032.96 833.488 1032.62 833.744C1032.28 833.979 1031.89 834.075 1031.46 834.032C1031.06 834.011 1030.7 833.861 1030.38 833.584C1030.08 833.307 1029.94 832.901 1029.96 832.368C1030.07 830.299 1030.07 827.995 1029.96 825.456V825.136L1029.38 826.16C1028.94 826.907 1028.42 827.92 1027.85 829.2L1026.31 832.752C1026.18 833.008 1026 833.211 1025.77 833.36C1025.64 833.531 1025.47 833.669 1025.26 833.776ZM1038.03 832.56C1037.92 831.195 1037.84 829.925 1037.77 828.752C1037.71 827.515 1037.68 826.448 1037.68 825.552C1037.66 824.848 1037.65 824.08 1037.65 823.248C1037.65 822.416 1037.64 821.595 1037.61 820.784C1037.61 819.973 1037.6 819.259 1037.58 818.64C1037.58 818.128 1037.74 817.733 1038.06 817.456C1038.38 817.179 1038.76 817.04 1039.18 817.04C1039.61 817.019 1039.98 817.136 1040.3 817.392C1040.62 817.648 1040.78 818.043 1040.78 818.576L1040.85 823.664C1043 823.579 1045.39 823.536 1048.01 823.536C1047.99 822.341 1047.93 820.72 1047.82 818.672C1047.8 818.139 1047.94 817.733 1048.24 817.456C1048.56 817.179 1048.92 817.029 1049.33 817.008C1049.75 816.987 1050.14 817.104 1050.48 817.36C1050.82 817.595 1051 817.968 1051.02 818.48C1051.24 822.661 1051.34 827.301 1051.34 832.4C1051.34 832.933 1051.18 833.339 1050.86 833.616C1050.54 833.872 1050.17 834 1049.74 834C1049.32 834 1048.94 833.872 1048.62 833.616C1048.3 833.339 1048.14 832.933 1048.14 832.4C1048.14 830.288 1048.13 828.4 1048.11 826.736C1045.44 826.736 1043.04 826.779 1040.91 826.864C1040.95 828.699 1041.06 830.491 1041.23 832.24C1041.27 832.752 1041.14 833.157 1040.85 833.456C1040.57 833.755 1040.22 833.936 1039.79 834C1039.36 834.043 1038.97 833.947 1038.61 833.712C1038.26 833.477 1038.07 833.093 1038.03 832.56ZM1060.48 833.936C1059.05 833.659 1057.87 833.083 1056.96 832.208C1056.04 831.312 1055.37 830.256 1054.94 829.04C1054.53 827.824 1054.37 826.565 1054.46 825.264C1054.52 824.048 1054.78 822.875 1055.23 821.744C1055.65 820.635 1056.33 819.643 1057.24 818.768C1058.18 817.893 1059.27 817.371 1060.51 817.2C1060.7 817.157 1060.91 817.136 1061.15 817.136C1061.51 816.923 1061.89 816.848 1062.3 816.912L1062.49 816.944C1062.68 816.944 1062.98 816.976 1063.39 817.04C1063.81 817.083 1064.17 817.168 1064.44 817.296C1065.7 817.808 1066.74 818.64 1067.55 819.792C1068.34 820.944 1068.86 822.171 1069.12 823.472C1069.37 824.773 1069.41 826.064 1069.24 827.344C1068.92 829.52 1068.06 831.237 1066.65 832.496C1064.99 833.968 1062.93 834.448 1060.48 833.936ZM1061.12 830.8C1062.54 831.099 1063.69 830.864 1064.54 830.096C1065.35 829.371 1065.86 828.304 1066.08 826.896C1066.2 825.936 1066.17 825.008 1065.98 824.112C1065.79 823.216 1065.47 822.437 1065.02 821.776C1064.57 821.093 1064.03 820.603 1063.39 820.304C1063.07 820.517 1062.73 820.603 1062.36 820.56C1062.32 820.56 1061.99 820.496 1061.37 820.368C1061.18 820.347 1061.04 820.336 1060.96 820.336C1060.1 820.464 1059.36 821.008 1058.72 821.968C1058.08 822.907 1057.72 824.059 1057.66 825.424C1057.57 826.811 1057.84 827.995 1058.46 828.976C1059.06 829.957 1059.94 830.565 1061.12 830.8ZM1072.78 832.72C1072.61 831.355 1072.5 829.872 1072.46 828.272C1072.44 827.12 1072.43 825.947 1072.43 824.752C1072.45 823.536 1072.47 822.405 1072.49 821.36C1072.51 820.293 1072.52 819.419 1072.52 818.736C1072.52 818.523 1072.56 818.32 1072.65 818.128C1072.74 817.787 1072.92 817.509 1073.19 817.296C1073.49 817.061 1073.82 816.944 1074.19 816.944H1080.65C1081.18 816.944 1081.58 817.104 1081.83 817.424C1082.11 817.744 1082.25 818.117 1082.25 818.544C1082.25 818.971 1082.11 819.344 1081.83 819.664C1081.58 819.984 1081.18 820.144 1080.65 820.144H1075.72C1075.72 820.912 1075.7 821.872 1075.66 823.024C1075.64 824.176 1075.63 825.243 1075.63 826.224C1075.63 826.629 1075.64 827.205 1075.66 827.952C1075.68 828.677 1075.71 829.435 1075.75 830.224C1075.82 831.013 1075.89 831.696 1075.98 832.272C1076.02 832.805 1075.89 833.232 1075.59 833.552C1075.32 833.851 1074.98 834.021 1074.57 834.064C1074.16 834.128 1073.78 834.053 1073.42 833.84C1073.08 833.605 1072.86 833.232 1072.78 832.72ZM1088.88 833.936C1087.45 833.659 1086.28 833.083 1085.36 832.208C1084.44 831.312 1083.77 830.256 1083.35 829.04C1082.94 827.824 1082.78 826.565 1082.87 825.264C1082.93 824.048 1083.19 822.875 1083.63 821.744C1084.06 820.635 1084.73 819.643 1085.65 818.768C1086.59 817.893 1087.68 817.371 1088.91 817.2C1089.11 817.157 1089.32 817.136 1089.55 817.136C1089.92 816.923 1090.3 816.848 1090.71 816.912L1090.9 816.944C1091.09 816.944 1091.39 816.976 1091.79 817.04C1092.22 817.083 1092.57 817.168 1092.85 817.296C1094.11 817.808 1095.14 818.64 1095.95 819.792C1096.74 820.944 1097.27 822.171 1097.52 823.472C1097.78 824.773 1097.82 826.064 1097.65 827.344C1097.33 829.52 1096.47 831.237 1095.06 832.496C1093.39 833.968 1091.33 834.448 1088.88 833.936ZM1089.52 830.8C1090.95 831.099 1092.09 830.864 1092.95 830.096C1093.76 829.371 1094.27 828.304 1094.48 826.896C1094.61 825.936 1094.58 825.008 1094.39 824.112C1094.19 823.216 1093.87 822.437 1093.43 821.776C1092.98 821.093 1092.43 820.603 1091.79 820.304C1091.47 820.517 1091.13 820.603 1090.77 820.56C1090.73 820.56 1090.4 820.496 1089.78 820.368C1089.59 820.347 1089.45 820.336 1089.36 820.336C1088.51 820.464 1087.76 821.008 1087.12 821.968C1086.48 822.907 1086.13 824.059 1086.07 825.424C1085.98 826.811 1086.25 827.995 1086.87 828.976C1087.46 829.957 1088.35 830.565 1089.52 830.8ZM1103.04 830.832C1103.49 831.259 1103.69 831.717 1103.65 832.208C1103.61 832.677 1103.4 833.083 1103.04 833.424C1102.7 833.765 1102.28 833.957 1101.79 834C1101.32 834.043 1100.89 833.851 1100.48 833.424C1100.03 832.976 1099.84 832.517 1099.9 832.048C1099.97 831.579 1100.17 831.173 1100.51 830.832C1100.85 830.491 1101.26 830.299 1101.73 830.256C1102.2 830.213 1102.63 830.405 1103.04 830.832ZM1109.29 830.832C1109.74 831.259 1109.94 831.717 1109.9 832.208C1109.86 832.677 1109.65 833.083 1109.29 833.424C1108.95 833.765 1108.53 833.957 1108.04 834C1107.57 834.043 1107.14 833.851 1106.73 833.424C1106.28 832.976 1106.09 832.517 1106.15 832.048C1106.22 831.579 1106.42 831.173 1106.76 830.832C1107.1 830.491 1107.51 830.299 1107.98 830.256C1108.45 830.213 1108.88 830.405 1109.29 830.832ZM1115.54 830.832C1115.99 831.259 1116.19 831.717 1116.15 832.208C1116.11 832.677 1115.9 833.083 1115.54 833.424C1115.2 833.765 1114.78 833.957 1114.29 834C1113.82 834.043 1113.39 833.851 1112.98 833.424C1112.53 832.976 1112.34 832.517 1112.4 832.048C1112.47 831.579 1112.67 831.173 1113.01 830.832C1113.35 830.491 1113.76 830.299 1114.23 830.256C1114.7 830.213 1115.13 830.405 1115.54 830.832Z" fill="black"/>
<g filter="url(#filter0_d_168_8163)">
<rect width="1920" height="100" fill="#ECF7FB"/>
</g>
<path d="M127.381 44.7995L142.075 74.8398C142.692 76.0601 143 76.9753 143 77.5855C143 78.8775 141.948 80.044 139.844 81.0848C138.61 81.6949 137.63 82 136.905 82C136.215 82 135.635 81.8385 135.163 81.5155C134.728 81.1925 134.401 80.8515 134.184 80.4926C134.002 80.1337 133.73 79.5953 133.367 78.8775L130.537 73.0633H115.463L112.633 78.8775C112.27 79.5953 111.98 80.1158 111.762 80.4388C111.58 80.7618 111.254 81.1027 110.782 81.4616C110.347 81.7847 109.766 81.9462 109.041 81.9462C108.351 81.9462 107.39 81.6411 106.156 81.031C104.052 80.026 103 78.8775 103 77.5855C103 76.9753 103.308 76.0601 103.925 74.8398L118.619 44.7456C119.018 43.9201 119.617 43.2562 120.415 42.7537C121.249 42.2512 122.12 42 123.027 42C124.986 42 126.438 42.9332 127.381 44.7995ZM122.973 57.7201L119.381 65.0956H126.619L122.973 57.7201Z" fill="#FF7700"/>
<path d="M99.4152 43.4774C99.6987 44.0246 99.8582 44.5171 99.8937 44.9549C99.9646 45.3926 100 46.031 100 46.87V77.2394C100 79.7565 99.3266 81.2339 97.9797 81.6717C97.3063 81.8906 96.4557 82 95.4278 82C94.4 82 93.5848 81.9088 92.9823 81.7264C92.3797 81.544 91.919 81.3251 91.6 81.0698C91.281 80.8144 91.0329 80.4496 90.8557 79.9754C90.6785 79.3552 90.5899 78.4067 90.5899 77.13V58.7989C89.7038 59.9298 88.4101 61.7355 86.7089 64.2161C85.0076 66.6603 83.9266 68.1924 83.4658 68.8126C83.0051 69.4327 82.6861 69.8705 82.5089 70.1259C82.3316 70.3447 81.8886 70.673 81.1797 71.1108C80.5063 71.5121 79.762 71.7127 78.9468 71.7127C78.1671 71.7127 77.4405 71.5303 76.7671 71.1655C76.1291 70.7642 75.6684 70.3812 75.3848 70.0164L74.9595 69.4145C74.2506 68.5025 72.8506 66.5691 70.7595 63.6142C68.6684 60.6229 67.5342 59.0178 67.357 58.7989V77.2394C67.357 78.0784 67.3215 78.7168 67.2506 79.1546C67.2152 79.5559 67.0557 80.0118 66.7722 80.5226C66.2405 81.5075 64.8582 82 62.6253 82C60.4633 82 59.1165 81.5075 58.5848 80.5226C58.3013 80.0118 58.1241 79.5376 58.0532 79.0999C58.0177 78.6621 58 78.0055 58 77.13V46.7606C58 45.9216 58.0177 45.3014 58.0532 44.9001C58.1241 44.4624 58.3013 43.9699 58.5848 43.4227C59.1165 42.4742 60.4987 42 62.7316 42C63.6886 42 64.5038 42.1277 65.1772 42.383C65.8861 42.6019 66.3468 42.839 66.5595 43.0944L66.8785 43.4227L78.9468 59.7291C84.9722 51.5212 88.9949 46.104 91.0152 43.4774C91.6177 42.4925 93.0354 42 95.2684 42C97.5367 42 98.919 42.4925 99.4152 43.4774Z" fill="#FF7700"/>
<path d="M252.128 43.6393C252.482 42.9836 252.996 42.5464 253.669 42.3279C254.342 42.1093 255.174 42 256.166 42C257.193 42 258.007 42.0911 258.609 42.2732C259.247 42.4554 259.707 42.6739 259.991 42.929C260.309 43.184 260.54 43.5665 260.681 44.0765C260.894 44.6594 261 45.5883 261 46.8634V77.1913C261 78.0656 260.965 78.7031 260.894 79.1038C260.858 79.5045 260.699 79.9781 260.416 80.5246C259.92 81.5082 258.539 82 256.272 82C254.891 82 253.934 81.8907 253.403 81.6721C252.872 81.4535 252.429 81.1075 252.075 80.6339C244.106 69.7049 238.865 62.5647 236.35 59.2131V77.1913C236.35 78.0656 236.315 78.7031 236.244 79.1038C236.208 79.5045 236.049 79.9781 235.766 80.5246C235.27 81.5082 233.889 82 231.622 82C229.426 82 228.08 81.5082 227.584 80.5246C227.301 79.9781 227.124 79.4863 227.053 79.0492C227.018 78.612 227 77.9745 227 77.1366V46.6448C227 45.2605 227.159 44.2587 227.478 43.6393C227.832 42.9836 228.346 42.5464 229.019 42.3279C229.692 42.1093 230.559 42 231.622 42C232.684 42 233.517 42.1093 234.119 42.3279C234.756 42.51 235.199 42.7286 235.447 42.9836C235.589 43.0929 235.996 43.5665 236.669 44.4044C244.142 54.8597 249.135 61.7632 251.65 65.1148V46.6448C251.65 45.2605 251.809 44.2587 252.128 43.6393Z" fill="#FF7700"/>
<path d="M213 46.8022C213 45.9654 213.017 45.347 213.051 44.9468C213.119 44.5102 213.288 44.0191 213.559 43.4734C214.034 42.4911 215.356 42 217.525 42C219.898 42 221.305 42.673 221.746 44.0191C221.915 44.6376 222 45.5835 222 46.8568V77.1978C222 78.0709 221.966 78.7076 221.898 79.1078C221.864 79.508 221.712 79.9809 221.441 80.5266C220.966 81.5089 219.644 82 217.475 82C215.102 82 213.712 81.3088 213.305 79.9263C213.102 79.3442 213 78.4166 213 77.1432V46.8022Z" fill="#FF7700"/>
<path d="M260.189 17C261.739 17.0006 262.996 18.248 262.996 19.7869V19.7902L262.998 19.7919L263 19.7941V26.4978C263 28.0373 261.743 29.2847 260.193 29.2847H208.76C207.756 29.2847 206.828 29.8181 206.327 30.6826L176.839 81.6021C175.76 83.466 173.051 83.466 171.972 81.6021L142.485 30.6826C141.984 29.8181 141.056 29.2847 140.051 29.2847H58.8074C57.2566 29.2847 56 28.0373 56 26.4978V19.7869C56 18.248 57.2566 17 58.8074 17H260.189ZM158.15 26.4928C155.991 26.4928 154.64 28.8103 155.716 30.6687L171.972 58.74C173.051 60.6044 175.761 60.6044 176.84 58.74L193.096 30.6681C194.172 28.8103 192.821 26.4928 190.663 26.4928H158.15Z" fill="#23687B"/>
<path d="M1866 70C1877.05 70 1886 61.0458 1886 49.9999C1886 38.9543 1877.05 30 1866 30C1854.95 30 1846 38.9543 1846 49.9999C1846 61.0458 1854.95 70 1866 70Z" fill="#616161"/>
<path d="M1871.78 43.5C1871.78 40.0302 1868.97 37.2174 1865.5 37.2174C1862.03 37.2174 1859.22 40.0302 1859.22 43.5C1859.22 46.9698 1862.03 49.7826 1865.5 49.7826C1868.97 49.7826 1871.78 46.9698 1871.78 43.5ZM1874 43.5C1874 48.1944 1870.19 52 1865.5 52C1860.81 52 1857 48.1944 1857 43.5C1857 38.8056 1860.81 35 1865.5 35C1870.19 35 1874 38.8056 1874 43.5Z" fill="black"/>
<path d="M1865.5 56C1871.57 56 1875.44 57.2721 1877.81 59.6886C1880.16 62.0916 1880.81 65.4007 1881 68.8829L1878.83 69C1878.64 65.6161 1878.02 62.9887 1876.24 61.1717C1874.47 59.3684 1871.33 58.1371 1865.5 58.1371C1859.67 58.1371 1856.53 59.3684 1854.76 61.1717C1852.98 62.9887 1852.36 65.6161 1852.17 69L1850 68.8829C1850.19 65.4007 1850.84 62.0916 1853.19 59.6886C1855.56 57.2721 1859.43 56 1865.5 56Z" fill="black"/>
<path d="M1841 49.5C1841 44.8572 1842.22 40.501 1844.35 36.7492L1846.21 37.8489C1844.27 41.2755 1843.15 45.2537 1843.15 49.5C1843.15 62.3702 1853.38 72.8038 1866 72.8038C1878.62 72.8038 1888.85 62.3702 1888.85 49.5C1888.85 36.6296 1878.62 27 1866 27C1861.84 27 1858.08 28.0178 1854.73 30L1853.75 28C1857.42 25.8297 1861.59 25 1866 25C1879.81 25 1891 35.4167 1891 49.5C1891 63.5834 1879.81 75 1866 75C1852.19 75 1841 63.583 1841 49.5Z" fill="black"/>
</g>
<defs>
<filter id="filter0_d_168_8163" x="-30" y="-20" width="1980" height="160" filterUnits="userSpaceOnUse" color-interpolation-filters="sRGB">
<feFlood flood-opacity="0" result="BackgroundImageFix"/>
<feColorMatrix in="SourceAlpha" type="matrix" values="0 0 0 0 0 0 0 0 0 0 0 0 0 0 0 0 0 0 127 0" result="hardAlpha"/>
<feOffset dy="10"/>
<feGaussianBlur stdDeviation="15"/>
<feComposite in2="hardAlpha" operator="out"/>
<feColorMatrix type="matrix" values="0 0 0 0 0 0 0 0 0 0 0 0 0 0 0 0 0 0 0.05 0"/>
<feBlend mode="normal" in2="BackgroundImageFix" result="effect1_dropShadow_168_8163"/>
<feBlend mode="normal" in="SourceGraphic" in2="effect1_dropShadow_168_8163" result="shape"/>
</filter>
<clipPath id="clip0_168_8163">
<rect width="1920" height="2500" fill="white"/>
</clipPath>
</defs>
</svg>
